HIERARCHY
ROOT Hips
{
	OFFSET 0.00000 0.00000 0.00000
	CHANNELS 6 Xposition Yposition Zposition Zrotation Yrotation Xrotation 
	JOINT LHipJoint
	{
		OFFSET 0 0 0
		CHANNELS 3 Zrotation Yrotation Xrotation
		JOINT LeftHip
		{
			OFFSET 1.51378 -1.89840 0.47569
			CHANNELS 3 Zrotation Yrotation Xrotation
			JOINT LeftKnee
			{
				OFFSET 2.53380 -6.96157 0.00000
				CHANNELS 3 Zrotation Yrotation Xrotation
				JOINT LeftAnkle
				{
					OFFSET 2.74874 -7.55212 0.00000
					CHANNELS 3 Zrotation Yrotation Xrotation
					JOINT LeftToe
					{
						OFFSET 0.18263 -0.50178 1.99677
						CHANNELS 3 Zrotation Yrotation Xrotation
						End Site
						{
							OFFSET 0.00000 -0.00000 1.03711
						}
					}
				}
			}
		}
	}
	JOINT RHipJoint
	{
		OFFSET 0 0 0
		CHANNELS 3 Zrotation Yrotation Xrotation
		JOINT RightHip
		{
			OFFSET -1.43037 -1.89840 0.47569
			CHANNELS 3 Zrotation Yrotation Xrotation
			JOINT RightKnee
			{
				OFFSET -2.69849 -7.41406 0.00000
				CHANNELS 3 Zrotation Yrotation Xrotation
				JOINT RightAnkle
				{
					OFFSET -2.69369 -7.40087 0.00000
					CHANNELS 3 Zrotation Yrotation Xrotation
					JOINT RightToe
					{
						OFFSET -0.28932 -0.79491 2.04975
						CHANNELS 3 Zrotation Yrotation Xrotation
						End Site
						{
							OFFSET 0.00009 0.00010 1.09536
						}
					}
				}
			}
		}
	}
	JOINT lowerback
	{
		OFFSET 0 0 0
		CHANNELS 3 Zrotation Yrotation Xrotation
		JOINT Chest
		{
			OFFSET 0.01912 1.94784 -0.02419
			CHANNELS 3 Zrotation Yrotation Xrotation
			JOINT Chest2
			{
				OFFSET 0.07565 1.94258 0.01909
				CHANNELS 3 Zrotation Yrotation Xrotation
				JOINT lowerneck
				{
					OFFSET 0 0 0
					CHANNELS 3 Zrotation Yrotation Xrotation
					JOINT Neck
					{
						OFFSET -0.07010 1.86195 0.18976
						CHANNELS 3 Zrotation Yrotation Xrotation
						JOINT Head
						{
							OFFSET 0.02284 1.86595 -0.31497
							CHANNELS 3 Zrotation Yrotation Xrotation
							End Site
							{
								OFFSET 0.01200 1.90122 -0.12838
							}
						}
					}
				}
				JOINT LeftCollar
				{
					OFFSET 0 0 0
					CHANNELS 3 Zrotation Yrotation Xrotation
					JOINT LeftShoulder
					{
						OFFSET 3.39189 0.96331 -0.10437
CHANNELS 3 Zrotation Xrotation Yrotation
						JOINT LeftElbow
						{
OFFSET 0 -5.148450 0.000000
CHANNELS 3 Zrotation Xrotation Yrotation
							JOINT LeftWrist
							{
OFFSET 0 -3.436740 -0.000000
CHANNELS 3 Zrotation Xrotation Yrotation
								JOINT lhand
								{
									OFFSET 0 0 0
CHANNELS 3 Zrotation Xrotation Yrotation
									JOINT LFingers
									{
OFFSET 0 -0.588710 0.000000
CHANNELS 3 Zrotation Xrotation Yrotation
										End Site
										{
OFFSET 0 -0.474630 0.000000
										}
									}
								}
								JOINT LThumb
								{
OFFSET 0 0.000000 0.000000
CHANNELS 3 Zrotation Xrotation Yrotation
									End Site
									{
OFFSET 0 -0.481880 0.481880
									}
								}
							}
						}
					}
				}
				JOINT RightCollar
				{
					OFFSET 0 0 0
					CHANNELS 3 Zrotation Yrotation Xrotation
					JOINT RightShoulder
					{
						OFFSET -3.34934 1.18831 -0.19928
CHANNELS 3 Zrotation Xrotation Yrotation
						JOINT RightElbow
						{
OFFSET 0 -5.421850 0.000000
CHANNELS 3 Zrotation Xrotation Yrotation
							JOINT RightWrist
							{
OFFSET 0 -3.513170 -0.000000
CHANNELS 3 Zrotation Xrotation Yrotation
								JOINT rhand
								{
									OFFSET 0 0 0
CHANNELS 3 Zrotation Xrotation Yrotation
									JOINT RFingers
									{
OFFSET 0 -0.663190 0.000000
CHANNELS 3 Zrotation Xrotation Yrotation
										End Site
										{
OFFSET 0 -0.534680 0.000000
										}
									}
								}
								JOINT RThumb
								{
OFFSET 0 0.000000 0.000000
CHANNELS 3 Zrotation Xrotation Yrotation
									End Site
									{
OFFSET 0 -0.542840 0.542840
									}
								}
							}
						}
					}
				}
			}
		}
	}
}
MOTION
Frames: 5
Frame Time: 0.008333333333333333
15.053000 17.725600 -4.688600 -106.736000 -86.770000 115.102000 0.000000 0.000000 0.000000 -17.627000 -6.028400 -24.315700 4.893300 13.262600 40.359600 1.448100 -1.350800 -22.359400 0.303600 -3.542700 -9.793600 0.000000 0.000000 0.000000 26.550900 13.778000 -19.824800 -4.872800 -13.239100 40.270300 -2.503500 2.745600 -29.252500 -0.210700 -2.955100 8.153700 -0.199100 0.862500 0.269500 3.413900 1.117100 -0.050600 3.612800 0.545000 -0.275200 -3.278300 0.125700 -13.426300 -2.161200 0.548500 35.976600 -0.345800 -0.972100 14.683600 0.000000 0.000000 0.000000 -0.228100 5.661900 -19.735600 17.448700 -27.445500 4.292100 18.676300 5.848200 -24.165000 0.000000 0.000000 0.000000 -7.125000 0.000000 0.000000 -11.414800 54.959000 2.819000 0.000000 0.000000 0.000000 -2.647000 -1.802600 21.031100 -14.814500 -23.887100 -3.150500 -28.475000 -6.493600 -12.585400 0.000000 0.000000 0.000000 7.125000 0.000000 -0.000000 -0.827200 15.729900 -0.572000
14.974470 17.692240 -4.824754 -86.059116 -85.996169 94.431584 0.000000 0.000000 0.000000 -15.117942 -6.477739 -31.191276 7.587111 15.805743 51.059385 0.981688 -2.112722 -18.134322 0.566927 -4.819445 -13.394881 0.000000 0.000000 0.000000 28.232209 12.437747 -19.575709 -4.751909 -13.098863 39.739584 -2.504939 2.690690 -29.273306 -0.116707 -2.197822 6.052935 0.791165 0.601077 0.686853 3.886163 0.759042 0.175146 3.542251 0.355153 -0.247914 -3.403605 -0.061608 -13.367182 -2.105808 0.308196 35.586178 -0.329081 -1.062483 14.488568 0.000000 0.000000 0.000000 -0.243714 5.155394 -21.229546 17.831122 -27.940414 4.469887 19.008623 5.185173 -24.260938 0.000000 0.000000 0.000000 -7.125000 0.000000 0.000000 -11.117437 55.120941 2.788681 0.000000 0.000000 0.000000 -3.124250 -2.157377 20.982033 -15.077084 -24.253360 -3.257501 -28.467516 -6.580479 -12.245207 0.000000 0.000000 0.000000 7.125000 0.000000 0.000000 -0.851602 16.112600 -0.581844
14.808544 17.706239 -4.871119 -89.456650 -85.926818 97.598858 0.000000 0.000000 0.000000 -13.789817 -7.446060 -36.151506 8.863334 16.718980 55.616369 0.982076 -3.000210 -17.962216 0.688955 -5.306525 -14.784861 0.000000 0.000000 0.000000 28.581493 11.200282 -18.617885 -4.545558 -12.852990 38.820698 -2.571315 3.855473 -29.432344 -0.100268 -2.040983 5.618906 1.300358 0.936790 1.295186 3.984846 1.215330 0.432976 3.345175 0.578941 -0.341445 -3.681575 -0.324085 -13.314397 -2.002698 -0.064191 35.871911 -0.302493 -1.253862 14.614298 0.000000 0.000000 0.000000 -0.678828 5.112636 -22.274323 18.634622 -28.962015 4.852715 18.866345 4.508662 -23.999473 0.000000 0.000000 0.000000 -7.125000 0.000000 0.000000 -11.145865 54.829675 2.716365 0.000000 0.000000 0.000000 -3.804406 -2.461317 19.682888 -14.535333 -23.494768 -3.038308 -26.588099 -6.061910 -14.972817 0.000000 0.000000 0.000000 7.125000 0.000000 0.000000 0.664370 13.330280 0.493309
14.511389 17.745778 -4.914234 -97.942413 -86.139635 106.655396 0.000000 0.000000 0.000000 -12.738101 -9.274572 -38.519411 7.234280 15.525542 49.754025 0.873867 -2.160778 -17.066930 0.914111 -6.091342 -17.049883 0.000000 0.000000 0.000000 28.575789 11.101848 -17.499134 -4.305822 -12.556562 37.730386 -2.756821 3.171540 -30.659988 -0.023222 -0.976398 2.683860 1.357218 1.302107 1.219803 3.731597 1.715332 0.227843 3.041342 0.833364 -0.524529 -3.605923 -0.459786 -13.127492 -1.927094 -0.362519 36.230017 -0.339431 -1.375908 14.741175 0.000000 0.000000 0.000000 -0.590910 5.954488 -22.566008 18.987950 -29.403651 5.024951 18.549994 3.952909 -24.073749 0.000000 0.000000 0.000000 -7.125000 0.000000 0.000000 -11.502759 54.842655 2.808352 0.000000 0.000000 0.000000 -3.653186 -2.100758 18.221581 -14.022240 -22.766422 -2.836690 -27.125147 -5.951774 -15.252957 0.000000 0.000000 0.000000 7.125000 0.000000 0.000000 0.328734 12.945731 0.246762
14.120085 17.732770 -4.911906 -104.738616 -86.073344 113.947783 0.000000 0.000000 0.000000 -11.695913 -11.514253 -38.535570 4.511037 12.808898 38.660673 0.634760 1.286140 -15.572745 2.686941 -10.157110 -29.499014 0.000000 0.000000 0.000000 28.570518 10.339829 -16.398753 -4.140015 -12.344399 36.961438 -2.912199 4.228146 -31.341297 -0.020085 -0.912672 2.508548 1.621497 1.537738 1.220258 3.630280 2.026566 0.367361 2.785067 0.987986 -0.382215 -3.602107 -0.464899 -13.414163 -1.968639 -0.293840 35.916441 -0.339167 -1.330374 14.659290 0.000000 0.000000 0.000000 -0.790729 6.087995 -21.690800 18.574846 -28.886886 4.823767 18.030224 4.097256 -23.814054 0.000000 0.000000 0.000000 -7.125000 0.000000 0.000000 -11.916077 54.481469 2.806388 0.000000 0.000000 0.000000 -3.942725 -1.494915 19.769341 -14.379315 -23.274388 -2.976377 -26.796466 -6.371125 -13.930241 0.000000 0.000000 0.000000 7.125000 0.000000 0.000000 0.434847 14.450835 0.312641
